<?xml version="1.0" encoding="utf-8"?>
<!-- Generator: Adobe Illustrator 27.0.0, SVG Export Plug-In . SVG Version: 6.00 Build 0)  -->
<svg version="1.1" id="Layer_1" xmlns="http://www.w3.org/2000/svg" xmlns:xlink="http://www.w3.org/1999/xlink" x="0px" y="0px"
	 viewBox="0 0 1783 406.5" style="enable-background:new 0 0 1783 406.5;" xml:space="preserve">
<style type="text/css">
	.st0{fill:#1C1F2B;}
</style>
<g>
	<g>
		<g>
			<path class="st0" d="M249.48,146.96c-8.99,3.51-16.36,7.37-22.12,11.58c-5.9,4.36-10.88,9.2-14.96,14.53
				c-4.21,5.34-7.79,11.37-10.74,18.11c-3.09,6.74-6.32,14.4-9.69,22.96l-55.19,137.13c-2.53,6.18-5.83,11.79-9.9,16.85
				c-4.21,4.92-8.92,9.2-14.11,12.85c-5.34,3.51-11.09,6.25-17.27,8.22c-6.18,1.82-12.57,2.74-19.17,2.74
				c-5.62,0-11.58-0.84-17.9-2.53c-6.32-1.82-12.15-4.42-17.48-7.79c-5.48-3.37-9.97-7.52-13.48-12.43
				c-3.65-5.05-5.48-10.88-5.48-17.48c0-2.53,0.49-4.92,1.47-7.16c0.84-2.25,2.11-4.21,3.79-5.9c1.54-1.68,3.44-3.02,5.69-4
				c2.24-0.98,4.63-1.47,7.16-1.47c4.49,0,8.28,0.84,11.37,2.53c2.95,1.54,5.61,3.58,8.01,6.11c2.24,2.53,4.35,5.19,6.32,8.01
				c1.82,2.81,3.79,5.47,5.9,8c2.11,2.53,4.56,4.63,7.37,6.32c2.67,1.54,5.97,2.32,9.9,2.32c5.19,0,9.69-1.13,13.48-3.37
				c3.65-2.25,6.88-5.13,9.69-8.63c2.81-3.65,5.19-7.58,7.16-11.8c1.97-4.21,3.79-8.36,5.48-12.43L79.08,207.2
				c-3.09-8.28-5.9-15.51-8.43-21.69c-2.67-6.04-5.76-11.44-9.27-16.22c-3.65-4.63-8-8.7-13.06-12.22
				c-5.05-3.51-11.52-6.74-19.38-9.69v-14.32h102.79v13.9c-9.13,2.81-16.36,7.09-21.69,12.85c-5.48,5.76-8.21,13.55-8.21,23.38
				c0,3.23,0.28,6.32,0.84,9.27c0.42,3.09,1.19,6.18,2.32,9.27l31.81,91.42l35.39-93.31c1.54-3.65,2.74-7.44,3.58-11.37
				c0.84-3.79,1.26-7.72,1.26-11.8c0-8.28-2.18-14.81-6.53-19.59c-4.5-4.77-10.67-8-18.54-9.69v-14.32h97.52V146.96z"/>
			<path class="st0" d="M415.47,342.64c-1.13-6.88-1.9-13.76-2.32-20.64c-0.42-6.88-0.63-13.76-0.63-20.64
				c-4.92,5.34-10.18,10.32-15.8,14.95c-5.62,4.63-11.59,8.64-17.91,12.01c-6.46,3.37-13.13,6.04-20.01,8
				c-7.02,1.97-14.26,2.95-21.7,2.95c-16.29,0-28.86-4.57-37.7-13.69c-8.85-9.13-13.27-21.83-13.27-38.13V215
				c0-10.53-1.9-20.43-5.69-29.7c-3.93-9.13-10.25-17.06-18.96-23.8v-9.48l56.45-24.22c-2.81,16.29-4.63,32.65-5.48,49.08
				c-0.84,16.57-1.26,33.14-1.26,49.71v30.75c0,7.02,0.7,13.76,2.11,20.22c1.26,6.46,3.51,12.15,6.74,17.06
				c3.09,4.92,7.37,8.85,12.85,11.79c5.34,2.95,12.01,4.42,20.01,4.42c10.95,0,21.62-2.25,32.02-6.74
				c10.39-4.35,19.59-10.04,27.59-17.06v-51.82c0-6.74-0.21-13.55-0.63-20.43c-0.56-6.88-1.69-13.55-3.37-20.01
				c-1.69-6.32-4.21-12.36-7.58-18.12c-3.37-5.61-8-10.67-13.9-15.16v-9.48l56.45-24.22c-2.81,16.29-4.56,32.65-5.27,49.08
				c-0.71,16.57-1.05,33.14-1.05,49.71v29.91c0,6.46,0.42,12.43,1.27,17.9c0.7,5.62,2.11,10.74,4.21,15.38
				c1.96,4.78,4.77,9.2,8.43,13.27c3.51,4.21,8.07,8.22,13.69,12.01v11.37L415.47,342.64z"/>
			<path class="st0" d="M733.12,330.64v-14.75c8.14-3.09,14.46-7.44,18.96-13.06c4.49-5.62,7.79-11.93,9.9-18.96
				c2.11-7.02,3.37-14.46,3.79-22.33c0.28-7.72,0.42-15.3,0.42-22.75v-16.01c0-7.44-0.35-14.96-1.05-22.54
				c-0.7-7.58-2.46-14.46-5.27-20.64c-2.81-6.04-6.95-11.02-12.43-14.96c-5.62-3.79-13.27-5.69-22.96-5.69
				c-10.67,0-21.14,2.11-31.39,6.32c-10.25,4.35-19.52,9.97-27.8,16.85v78.57c0,6.04,0.49,11.94,1.47,17.69
				c0.98,5.9,2.74,11.24,5.27,16.01c2.53,4.92,5.9,9.2,10.11,12.85c4.21,3.65,9.55,6.39,16.01,8.21v15.17h-91.42v-14.75
				c7.58-2.95,13.55-6.88,17.9-11.79c4.35-4.91,7.65-10.46,9.9-16.64c2.25-6.18,3.72-12.78,4.42-19.8
				c0.56-7.02,0.84-14.04,0.84-21.06v-24.22c0-7.44-0.35-14.95-1.05-22.54c-0.7-7.44-2.39-14.25-5.05-20.43
				c-2.81-6.04-6.95-10.95-12.43-14.75c-5.62-3.79-13.2-5.69-22.75-5.69c-11.51,0-22.75,2.39-33.7,7.16
				c-11.09,4.92-20.85,11.17-29.28,18.75c-0.28,6.46-0.49,12.78-0.63,18.96c-0.14,6.32-0.21,12.64-0.21,18.96v37.91
				c0,6.18,0.56,12.15,1.69,17.91c0.98,5.9,2.81,11.24,5.47,16.01c2.53,4.92,5.97,9.13,10.32,12.64c4.21,3.65,9.55,6.39,16.01,8.21
				v15.17h-91.42v-14.75c8.14-2.95,14.53-7.65,19.17-14.11c4.63-6.46,8.14-13.69,10.53-21.69c2.25-7.86,3.72-16.08,4.42-24.65
				c0.56-8.56,0.84-16.43,0.84-23.59c0-7.02-0.28-13.97-0.84-20.85c-0.56-6.88-1.76-13.48-3.58-19.8
				c-1.97-6.32-4.71-12.35-8.21-18.11c-3.51-5.61-8.21-10.74-14.11-15.37v-9.48L541.44,124c-1.55,7.87-2.67,15.59-3.37,23.17
				c-0.7,7.72-1.26,15.52-1.68,23.38c4.91-5.62,10.32-10.88,16.22-15.8c5.76-4.77,11.93-8.98,18.54-12.64
				c6.6-3.51,13.55-6.32,20.85-8.43c7.16-2.11,14.6-3.16,22.33-3.16c6.32,0,12.28,0.78,17.9,2.32c5.61,1.55,10.6,3.87,14.95,6.95
				c4.35,3.23,8.01,7.23,10.95,12.01c2.81,4.78,4.77,10.46,5.9,17.06c4.91-5.34,10.32-10.39,16.22-15.17
				c5.76-4.63,11.87-8.71,18.33-12.22c6.32-3.37,12.99-6.04,20.01-8c7.02-1.97,14.25-2.95,21.69-2.95c16.57,0,29.28,4.5,38.13,13.48
				c8.85,8.99,13.27,21.56,13.27,37.7v78.99c0,6.04,0.49,11.94,1.47,17.69c0.98,5.9,2.67,11.24,5.06,16.01
				c2.38,4.92,5.69,9.2,9.9,12.85c4.21,3.65,9.55,6.39,16.01,8.21v15.17H733.12z"/>
			<path class="st0" d="M1114.31,147.38c-10.53,6.18-19.17,13.62-25.9,22.33c-6.74,8.85-12.36,18.32-16.85,28.44
				c-4.49,10.11-8.29,20.72-11.38,31.81c-3.23,11.1-6.6,22.05-10.11,32.86c-1.13,3.93-2.18,7.93-3.16,12.01
				c-0.98,4.21-1.47,8.29-1.47,12.22c0,6.6,1.05,12.29,3.16,17.06c1.96,4.78,5.75,8.85,11.37,12.22v14.32h-82.36v-14.75
				c4.77-1.82,8.63-4.14,11.58-6.95c2.95-2.81,4.42-7.09,4.42-12.85c0-4.35-0.21-8.71-0.63-13.06c-0.42-4.21-1.2-8.5-2.32-12.85
				l-25.91-103L927.27,270.6c-1.41,3.65-2.67,7.52-3.79,11.59c-1.27,4.07-1.9,8.14-1.9,12.22c0,5.9,1.47,10.39,4.42,13.48
				c2.8,3.23,6.81,5.9,12.01,8v14.75h-83.63v-13.9c5.34-4.77,8.99-10.04,10.95-15.8c1.82-5.76,2.74-12.08,2.74-18.96
				c0-3.23-0.14-6.46-0.42-9.69c-0.42-3.23-0.98-6.39-1.69-9.48L855.65,219c-1.97-8.01-4.21-15.52-6.74-22.54
				c-2.67-6.88-5.9-13.27-9.69-19.17c-3.79-5.76-8.36-11.02-13.69-15.8c-5.47-4.77-12.01-9.06-19.59-12.85v-15.59h94.58v14.75
				c-18.68,1.68-28.01,11.87-28.01,30.54c0,3.51,0.28,6.95,0.84,10.32c0.56,3.51,1.27,6.95,2.11,10.32l22.33,84.26h4l53.08-150.19
				h22.75l40.23,150.19h4.63l25.49-83.41c1.12-3.79,2.11-7.72,2.95-11.8c0.7-3.93,1.06-7.86,1.06-11.79c0-8.85-2.53-15.44-7.58-19.8
				c-5.2-4.35-11.8-7.37-19.8-9.06v-14.32h89.73V147.38z"/>
			<path class="st0" d="M1303.81,231.01c0,13.76-2.46,27.1-7.37,40.02c-4.92,12.92-11.8,24.36-20.65,34.33
				c-8.85,9.97-19.31,17.98-31.38,24.01c-12.22,6.03-25.49,9.06-39.81,9.06c-14.46,0-27.73-3.02-39.81-9.06
				c-12.22-6.04-22.75-14.04-31.59-24.01c-8.85-9.97-15.73-21.41-20.65-34.33c-5.05-12.92-7.58-26.26-7.58-40.02
				c0-13.9,2.53-27.31,7.58-40.23c4.91-12.92,11.79-24.36,20.65-34.33c8.85-9.97,19.38-17.97,31.59-24.01
				c12.07-5.9,25.34-8.85,39.81-8.85c14.33,0,27.59,3.02,39.81,9.06c12.07,6.04,22.54,14.04,31.38,24.01
				c8.85,9.97,15.73,21.42,20.65,34.33L1303.81,231.01z M1278.33,231.01c0-11.23-1.76-21.41-5.27-30.54
				c-3.51-9.13-8.5-16.92-14.95-23.38c-6.46-6.46-14.19-11.44-23.17-14.95c-9.13-3.51-19.24-5.27-30.33-5.27
				c-11.23,0-21.41,1.76-30.54,5.27c-9.13,3.51-16.92,8.5-23.38,14.95c-6.46,6.46-11.45,14.25-14.95,23.38
				c-3.51,9.13-5.27,19.31-5.27,30.54c0,11.09,1.76,21.27,5.27,30.54c3.51,9.27,8.5,17.27,14.95,24.01
				c6.32,6.74,14.04,11.94,23.17,15.59c9.12,3.79,19.38,5.69,30.75,5.69c11.23,0,21.41-1.89,30.54-5.69
				c8.99-3.65,16.71-8.85,23.17-15.59c6.45-6.74,11.44-14.75,14.95-24.01L1278.33,231.01z"/>
			<path class="st0" d="M1523.3,231.01c0,13.76-2.46,27.1-7.37,40.02c-4.92,12.92-11.8,24.36-20.65,34.33
				c-8.85,9.97-19.31,17.98-31.38,24.01c-12.22,6.03-25.49,9.06-39.81,9.06c-14.46,0-27.73-3.02-39.81-9.06
				c-12.22-6.04-22.75-14.04-31.6-24.01c-8.85-9.97-15.73-21.41-20.65-34.33c-5.05-12.92-7.58-26.26-7.58-40.02
				c0-13.9,2.53-27.31,7.58-40.23c4.91-12.92,11.79-24.36,20.65-34.33c8.85-9.97,19.38-17.97,31.6-24.01
				c12.07-5.9,25.34-8.85,39.81-8.85c14.33,0,27.59,3.02,39.81,9.06c12.07,6.04,22.54,14.04,31.38,24.01
				c8.85,9.97,15.73,21.42,20.65,34.33L1523.3,231.01z M1497.81,231.01c0-11.23-1.76-21.41-5.27-30.54
				c-3.51-9.13-8.5-16.92-14.95-23.38c-6.46-6.46-14.19-11.44-23.17-14.95c-9.13-3.51-19.24-5.27-30.33-5.27
				c-11.23,0-21.41,1.76-30.54,5.27c-9.13,3.51-16.92,8.5-23.38,14.95c-6.46,6.46-11.45,14.25-14.95,23.38
				c-3.51,9.13-5.27,19.31-5.27,30.54c0,11.09,1.76,21.27,5.27,30.54c3.51,9.27,8.5,17.27,14.95,24.01
				c6.32,6.74,14.04,11.94,23.17,15.59c9.12,3.79,19.38,5.69,30.75,5.69c11.23,0,21.41-1.89,30.54-5.69
				c8.99-3.65,16.71-8.85,23.17-15.59c6.45-6.74,11.44-14.75,14.95-24.01L1497.81,231.01z"/>
			<path class="st0" d="M1674.33,63.97c0,2.53-0.42,4.85-1.26,6.95c-0.98,2.25-2.25,4.14-3.79,5.69c-1.69,1.68-3.65,3.02-5.9,4
				c-2.25,0.98-4.63,1.47-7.17,1.47c-4.49,0-8.21-0.84-11.16-2.53c-3.09-1.54-5.76-3.58-8.01-6.11c-2.39-2.39-4.5-5.05-6.32-8.01
				c-1.97-2.81-4-5.47-6.11-8c-2.1-2.39-4.49-4.42-7.16-6.11c-2.81-1.54-6.18-2.32-10.11-2.32c-3.65,0-6.88,0.71-9.69,2.11
				c-2.95,1.41-5.41,3.3-7.37,5.69c-1.97,2.39-3.44,5.13-4.42,8.21c-1.13,3.09-1.69,6.39-1.69,9.9c0,8,1.4,15.8,4.21,23.38
				c2.67,7.58,6.46,14.32,11.38,20.22c4.91,5.9,10.88,10.61,17.9,14.11c6.88,3.51,14.53,5.27,22.96,5.27h20.22v29.7h-58.56v93.1
				c0,6.18,0.56,12.15,1.69,17.91c0.98,5.9,2.8,11.24,5.47,16.01c2.53,4.92,5.97,9.13,10.32,12.64c4.22,3.65,9.55,6.39,16.01,8.21
				v15.17h-91.42v-14.75c7.72-3.09,13.83-7.51,18.33-13.27c4.35-5.61,7.72-11.93,10.11-18.96c2.25-6.88,3.72-14.18,4.42-21.91
				c0.56-7.58,0.85-14.95,0.85-22.12V167.6h-42.76v-29.7h39.81c-6.32-7.16-11.24-15.17-14.74-24.01c-3.52-8.7-5.27-17.83-5.27-27.38
				c0-8.71,1.75-16.92,5.27-24.65c3.51-7.58,8.21-14.25,14.11-20.01c5.9-5.62,12.78-10.11,20.65-13.48
				c7.86-3.23,16.15-4.84,24.85-4.84c5.61,0,11.59,0.84,17.9,2.53c6.32,1.68,12.22,4.21,17.7,7.58c5.34,3.37,9.83,7.58,13.48,12.64
				L1674.33,63.97z"/>
			<path class="st0" d="M1755,308.64c0,14.67-12.08,26.74-26.74,26.74c-14.67,0-26.31-12.08-26.31-26.74
				c0-14.67,11.65-26.32,26.31-26.32C1742.92,282.32,1755,293.97,1755,308.64z M1725.67,249.1c-4.31,0-6.04-1.73-6.47-8.2
				l-14.67-192.83c-0.86-13.37,2.16-18.98,16.82-18.98h14.67c14.67,0,17.69,5.61,16.82,18.98l-14.67,192.83
				c-0.43,6.47-2.16,8.2-6.47,8.2H1725.67z"/>
		</g>
	</g>
</g>
</svg>
