<?xml version="1.0" encoding="utf-8"?>
<!-- Generator: Adobe Illustrator 27.0.0, SVG Export Plug-In . SVG Version: 6.00 Build 0)  -->
<svg version="1.1" id="Layer_1" xmlns="http://www.w3.org/2000/svg" xmlns:xlink="http://www.w3.org/1999/xlink" x="0px" y="0px"
	 viewBox="0 0 1920 433" style="enable-background:new 0 0 1920 433;" xml:space="preserve">
<style type="text/css">
	.st0{fill:#F3E6D3;}
</style>
<g>
	<g>
		<g>
			<path class="st0" d="M257.65,158.17c-9.88,3.86-17.98,8.1-24.3,12.73c-6.48,4.79-11.96,10.11-16.44,15.97
				c-4.63,5.87-8.56,12.5-11.8,19.91c-3.4,7.41-6.94,15.82-10.65,25.23l-60.64,150.68c-2.78,6.79-6.4,12.96-10.88,18.51
				c-4.63,5.4-9.8,10.11-15.51,14.12c-5.87,3.86-12.19,6.87-18.98,9.03c-6.79,2-13.81,3.01-21.06,3.01
				c-6.17,0-12.73-0.93-19.67-2.78c-6.94-2.01-13.35-4.86-19.21-8.56c-6.02-3.7-10.96-8.26-14.81-13.66
				c-4.02-5.55-6.02-11.96-6.02-19.21c0-2.78,0.54-5.4,1.62-7.87c0.93-2.47,2.31-4.63,4.17-6.48c1.7-1.85,3.78-3.32,6.25-4.4
				c2.46-1.08,5.09-1.62,7.87-1.62c4.94,0,9.1,0.93,12.5,2.78c3.24,1.7,6.17,3.94,8.8,6.71c2.46,2.78,4.78,5.71,6.94,8.8
				c2.01,3.08,4.17,6.02,6.48,8.79c2.32,2.78,5.01,5.09,8.1,6.94c2.93,1.7,6.56,2.55,10.88,2.55c5.7,0,10.65-1.24,14.81-3.7
				c4.01-2.47,7.56-5.63,10.65-9.49c3.08-4.02,5.71-8.33,7.87-12.96c2.16-4.63,4.17-9.18,6.02-13.65L70.4,224.37
				c-3.4-9.1-6.48-17.05-9.26-23.84c-2.93-6.63-6.33-12.58-10.18-17.82c-4.01-5.09-8.79-9.56-14.35-13.43
				c-5.55-3.85-12.65-7.41-21.29-10.65v-15.74h112.95v15.28c-10.03,3.09-17.98,7.79-23.84,14.12c-6.02,6.33-9.03,14.89-9.03,25.69
				c0,3.55,0.31,6.94,0.92,10.18c0.46,3.4,1.31,6.79,2.55,10.18l34.95,100.46l38.89-102.54c1.69-4.01,3.01-8.18,3.93-12.5
				c0.93-4.17,1.39-8.49,1.39-12.96c0-9.1-2.39-16.28-7.17-21.53c-4.94-5.24-11.73-8.79-20.37-10.65v-15.74h107.17V158.17z"/>
			<path class="st0" d="M440.05,373.19c-1.24-7.56-2.08-15.12-2.55-22.68c-0.46-7.56-0.69-15.12-0.69-22.68
				c-5.4,5.87-11.19,11.34-17.36,16.43c-6.17,5.09-12.73,9.49-19.68,13.19c-7.1,3.7-14.43,6.63-21.99,8.79
				c-7.72,2.16-15.67,3.24-23.84,3.24c-17.9,0-31.71-5.02-41.43-15.05c-9.72-10.03-14.58-23.99-14.58-41.9v-79.62
				c0-11.57-2.08-22.45-6.25-32.64c-4.32-10.03-11.26-18.75-20.83-26.15v-10.42l62.03-26.62c-3.09,17.9-5.09,35.88-6.02,53.93
				c-0.93,18.21-1.39,36.42-1.39,54.63v33.79c0,7.72,0.77,15.12,2.31,22.22c1.39,7.1,3.85,13.35,7.41,18.75
				c3.39,5.4,8.1,9.72,14.12,12.96c5.86,3.24,13.19,4.86,21.99,4.86c12.03,0,23.76-2.47,35.18-7.41
				c11.42-4.78,21.53-11.03,30.32-18.75v-56.94c0-7.41-0.23-14.89-0.69-22.45c-0.62-7.56-1.85-14.89-3.7-21.99
				c-1.85-6.94-4.63-13.58-8.33-19.91c-3.7-6.17-8.79-11.72-15.28-16.66v-10.42l62.03-26.62c-3.09,17.9-5.02,35.88-5.79,53.93
				c-0.78,18.21-1.16,36.42-1.16,54.63v32.87c0,7.1,0.46,13.66,1.39,19.67c0.77,6.17,2.31,11.8,4.63,16.9
				c2.16,5.25,5.24,10.11,9.26,14.58c3.85,4.63,8.87,9.03,15.05,13.2v12.5L440.05,373.19z"/>
			<path class="st0" d="M789.11,360v-16.2c8.95-3.39,15.89-8.18,20.83-14.35c4.93-6.17,8.56-13.11,10.88-20.83
				c2.32-7.72,3.7-15.89,4.17-24.54c0.31-8.48,0.46-16.82,0.46-25V241.5c0-8.18-0.39-16.44-1.16-24.77
				c-0.77-8.33-2.7-15.89-5.79-22.68c-3.09-6.63-7.64-12.11-13.65-16.44c-6.17-4.17-14.58-6.25-25.23-6.25
				c-11.73,0-23.22,2.31-34.49,6.94c-11.26,4.78-21.45,10.96-30.55,18.51v86.33c0,6.64,0.54,13.12,1.62,19.44
				c1.08,6.48,3.01,12.35,5.79,17.59c2.78,5.4,6.48,10.11,11.11,14.12c4.63,4.01,10.49,7.02,17.59,9.03V360H650.23v-16.2
				c8.33-3.24,14.89-7.56,19.67-12.96c4.78-5.4,8.41-11.49,10.88-18.29c2.47-6.79,4.09-14.04,4.86-21.76
				c0.61-7.71,0.93-15.43,0.93-23.15v-26.62c0-8.18-0.39-16.43-1.16-24.77c-0.77-8.18-2.63-15.66-5.55-22.45
				c-3.09-6.63-7.64-12.04-13.66-16.2c-6.17-4.17-14.5-6.25-25-6.25c-12.65,0-25,2.63-37.03,7.87c-12.19,5.4-22.91,12.27-32.17,20.6
				c-0.31,7.1-0.54,14.04-0.69,20.83c-0.16,6.94-0.23,13.89-0.23,20.83v41.66c0,6.79,0.61,13.35,1.85,19.68
				c1.08,6.48,3.08,12.35,6.02,17.59c2.78,5.4,6.56,10.03,11.34,13.89c4.63,4.01,10.49,7.02,17.59,9.03V360H507.42v-16.2
				c8.95-3.24,15.97-8.41,21.06-15.51c5.09-7.1,8.95-15.05,11.57-23.84c2.47-8.64,4.09-17.67,4.86-27.08
				c0.61-9.41,0.93-18.05,0.93-25.92c0-7.72-0.31-15.35-0.93-22.92c-0.62-7.56-1.93-14.81-3.93-21.76
				c-2.16-6.94-5.17-13.58-9.03-19.91c-3.86-6.17-9.03-11.81-15.51-16.89v-10.42l62.03-26.62c-1.7,8.64-2.93,17.13-3.7,25.46
				c-0.77,8.49-1.39,17.05-1.85,25.69c5.4-6.17,11.34-11.96,17.82-17.36c6.32-5.24,13.11-9.87,20.37-13.89
				c7.25-3.85,14.89-6.94,22.91-9.26c7.87-2.31,16.05-3.47,24.54-3.47c6.94,0,13.5,0.85,19.67,2.55c6.17,1.7,11.65,4.25,16.43,7.64
				c4.78,3.55,8.8,7.95,12.04,13.19c3.08,5.25,5.24,11.5,6.48,18.75c5.4-5.86,11.34-11.42,17.82-16.67
				c6.33-5.09,13.04-9.57,20.14-13.43c6.94-3.7,14.27-6.63,21.99-8.79c7.71-2.16,15.66-3.24,23.84-3.24
				c18.21,0,32.17,4.94,41.9,14.82c9.72,9.88,14.58,23.69,14.58,41.43v86.8c0,6.64,0.54,13.12,1.62,19.44
				c1.08,6.48,2.93,12.35,5.56,17.59c2.62,5.4,6.25,10.11,10.88,14.12c4.63,4.01,10.49,7.02,17.59,9.03V360H789.11z"/>
			<path class="st0" d="M1207.97,158.63c-11.57,6.79-21.06,14.97-28.46,24.54c-7.41,9.72-13.58,20.13-18.52,31.25
				c-4.94,11.11-9.11,22.76-12.5,34.95c-3.55,12.19-7.26,24.23-11.11,36.11c-1.24,4.32-2.4,8.72-3.47,13.19
				c-1.08,4.63-1.62,9.11-1.62,13.43c0,7.25,1.16,13.5,3.47,18.75c2.16,5.25,6.32,9.72,12.5,13.43V360h-90.5v-16.2
				c5.24-2,9.49-4.55,12.73-7.64c3.24-3.08,4.86-7.79,4.86-14.12c0-4.78-0.23-9.57-0.69-14.35c-0.46-4.63-1.31-9.34-2.55-14.12
				l-28.47-113.18l-41.2,113.65c-1.55,4.02-2.93,8.26-4.16,12.73c-1.39,4.48-2.08,8.95-2.08,13.43c0,6.48,1.62,11.42,4.86,14.81
				c3.08,3.55,7.48,6.48,13.19,8.79V360h-91.89v-15.28c5.86-5.24,9.87-11.03,12.04-17.36c2-6.32,3.01-13.27,3.01-20.83
				c0-3.55-0.16-7.1-0.46-10.65c-0.46-3.55-1.08-7.02-1.85-10.41l-11.34-48.14c-2.16-8.8-4.63-17.05-7.41-24.77
				c-2.93-7.56-6.48-14.58-10.65-21.06c-4.17-6.33-9.18-12.11-15.05-17.36c-6.02-5.25-13.19-9.95-21.53-14.12v-17.13h103.93v16.2
				c-20.52,1.85-30.78,13.04-30.78,33.56c0,3.86,0.31,7.64,0.93,11.34c0.61,3.86,1.39,7.64,2.31,11.34l24.54,92.59h4.4l58.33-165.03
				h25l44.21,165.03h5.09l28.01-91.66c1.23-4.17,2.32-8.49,3.24-12.96c0.77-4.32,1.16-8.64,1.16-12.96c0-9.72-2.78-16.97-8.33-21.76
				c-5.72-4.78-12.97-8.1-21.76-9.95v-15.74h98.6V158.63z"/>
			<path class="st0" d="M1416.21,250.52c0,15.12-2.7,29.78-8.1,43.98c-5.4,14.2-12.97,26.77-22.69,37.73
				c-9.72,10.96-21.22,19.76-34.49,26.39c-13.43,6.63-28.01,9.95-43.75,9.95c-15.89,0-30.48-3.32-43.74-9.95
				c-13.43-6.63-25-15.43-34.72-26.39c-9.73-10.95-17.29-23.53-22.69-37.73c-5.55-14.2-8.33-28.85-8.33-43.98
				c0-15.28,2.78-30.01,8.33-44.21c5.4-14.2,12.96-26.77,22.69-37.73c9.72-10.95,21.29-19.75,34.72-26.39
				c13.27-6.48,27.85-9.72,43.74-9.72c15.74,0,30.32,3.32,43.75,9.95c13.27,6.64,24.77,15.43,34.49,26.39
				c9.72,10.96,17.28,23.53,22.69,37.73L1416.21,250.52z M1388.21,250.52c0-12.34-1.93-23.53-5.79-33.56
				c-3.86-10.03-9.34-18.59-16.43-25.69c-7.1-7.1-15.59-12.58-25.46-16.43c-10.03-3.85-21.14-5.79-33.33-5.79
				c-12.34,0-23.53,1.93-33.56,5.79c-10.04,3.86-18.6,9.34-25.69,16.43c-7.1,7.1-12.58,15.66-16.43,25.69
				c-3.86,10.03-5.79,21.22-5.79,33.56c0,12.19,1.93,23.38,5.79,33.56c3.85,10.18,9.34,18.98,16.43,26.39
				c6.94,7.41,15.43,13.12,25.46,17.13c10.03,4.17,21.29,6.25,33.79,6.25c12.34,0,23.53-2.08,33.56-6.25
				c9.87-4.01,18.36-9.72,25.46-17.13c7.09-7.41,12.58-16.2,16.43-26.39L1388.21,250.52z"/>
			<path class="st0" d="M1657.39,250.52c0,15.12-2.7,29.78-8.1,43.98c-5.4,14.2-12.97,26.77-22.69,37.73
				c-9.72,10.96-21.22,19.76-34.49,26.39c-13.43,6.63-28.01,9.95-43.75,9.95c-15.89,0-30.48-3.32-43.74-9.95
				c-13.43-6.63-25-15.43-34.72-26.39c-9.73-10.95-17.29-23.53-22.69-37.73c-5.55-14.2-8.33-28.85-8.33-43.98
				c0-15.28,2.78-30.01,8.33-44.21c5.4-14.2,12.96-26.77,22.69-37.73c9.72-10.95,21.29-19.75,34.72-26.39
				c13.27-6.48,27.85-9.72,43.74-9.72c15.74,0,30.32,3.32,43.75,9.95c13.27,6.64,24.77,15.43,34.49,26.39
				c9.72,10.96,17.28,23.53,22.69,37.73L1657.39,250.52z M1629.39,250.52c0-12.34-1.93-23.53-5.79-33.56
				c-3.86-10.03-9.34-18.59-16.43-25.69c-7.1-7.1-15.59-12.58-25.46-16.43c-10.03-3.85-21.14-5.79-33.33-5.79
				c-12.34,0-23.53,1.93-33.56,5.79c-10.04,3.86-18.6,9.34-25.69,16.43c-7.1,7.1-12.58,15.66-16.43,25.69
				c-3.86,10.03-5.79,21.22-5.79,33.56c0,12.19,1.93,23.38,5.79,33.56c3.85,10.18,9.34,18.98,16.43,26.39
				c6.94,7.41,15.43,13.12,25.46,17.13c10.03,4.17,21.29,6.25,33.79,6.25c12.34,0,23.53-2.08,33.56-6.25
				c9.87-4.01,18.36-9.72,25.46-17.13c7.09-7.41,12.58-16.2,16.43-26.39L1629.39,250.52z"/>
			<path class="st0" d="M1823.35,66.97c0,2.78-0.46,5.32-1.39,7.64c-1.08,2.47-2.47,4.55-4.16,6.25c-1.85,1.85-4.02,3.32-6.48,4.4
				c-2.48,1.08-5.09,1.62-7.87,1.62c-4.94,0-9.02-0.92-12.26-2.78c-3.4-1.7-6.33-3.93-8.8-6.71c-2.63-2.62-4.94-5.55-6.94-8.8
				c-2.16-3.08-4.4-6.02-6.71-8.79c-2.31-2.62-4.94-4.86-7.87-6.71c-3.09-1.7-6.79-2.55-11.11-2.55c-4.02,0-7.56,0.78-10.65,2.31
				c-3.24,1.55-5.94,3.63-8.1,6.25c-2.16,2.63-3.78,5.63-4.86,9.03c-1.24,3.4-1.85,7.02-1.85,10.88c0,8.79,1.54,17.36,4.63,25.69
				c2.93,8.33,7.1,15.74,12.5,22.22c5.4,6.48,11.95,11.65,19.67,15.51c7.56,3.86,15.97,5.79,25.23,5.79h22.22v32.63h-64.34v102.31
				c0,6.79,0.61,13.35,1.85,19.68c1.08,6.48,3.08,12.35,6.02,17.59c2.78,5.4,6.56,10.03,11.34,13.89
				c4.63,4.01,10.49,7.02,17.59,9.03V360h-100.46v-16.2c8.49-3.39,15.2-8.25,20.14-14.58c4.78-6.17,8.49-13.11,11.11-20.83
				c2.47-7.56,4.09-15.58,4.86-24.07c0.62-8.33,0.93-16.43,0.93-24.3v-79.16h-46.99v-32.63h43.75c-6.94-7.87-12.35-16.67-16.2-26.39
				c-3.86-9.56-5.79-19.59-5.79-30.09c0-9.57,1.93-18.59,5.79-27.08c3.85-8.33,9.02-15.66,15.5-21.99
				c6.48-6.17,14.04-11.11,22.69-14.82c8.64-3.55,17.74-5.32,27.31-5.32c6.17,0,12.73,0.93,19.67,2.78
				c6.94,1.85,13.43,4.63,19.45,8.33c5.86,3.7,10.8,8.33,14.81,13.89L1823.35,66.97z"/>
			<path class="st0" d="M1912,335.83c0,16.12-13.27,29.39-29.39,29.39c-16.12,0-28.91-13.27-28.91-29.39
				c0-16.12,12.8-28.92,28.91-28.92C1898.73,306.91,1912,319.71,1912,335.83z M1879.77,270.41c-4.74,0-6.63-1.9-7.11-9.01
				l-16.12-211.9c-0.95-14.69,2.37-20.86,18.49-20.86h16.12c16.12,0,19.44,6.16,18.49,20.86l-16.12,211.9
				c-0.47,7.11-2.37,9.01-7.11,9.01H1879.77z"/>
		</g>
	</g>
</g>
</svg>
